<?xml version="1.0" encoding="iso-8859-1"?>
<!-- Generator: Adobe Illustrator 24.0.0, SVG Export Plug-In . SVG Version: 6.00 Build 0)  -->
<svg version="1.2" baseProfile="tiny" id="&#x56FE;&#x5C42;_1"
	 xmlns="http://www.w3.org/2000/svg" xmlns:xlink="http://www.w3.org/1999/xlink" x="0px" y="0px" viewBox="0 0 256 256"
	 xml:space="preserve">
<linearGradient id="SVGID_1_" gradientUnits="userSpaceOnUse" x1="22.1298" y1="162.4221" x2="246.0397" y2="56.0265">
	<stop  offset="0" style="stop-color:#FFEE50"/>
	<stop  offset="0.6956" style="stop-color:#004EBF"/>
</linearGradient>
<path fill="url(#SVGID_1_)" d="M4.356,125.774c1.528,27.683,10.026,50.526,23.027,68.454
	c58.916,26.561,149.045,14.877,210.138-16.782c7.576-14.71,12.721-31.925,14.61-51.671C245.197-23.798,17.194-35.528,4.356,125.774z
	"/>
<linearGradient id="SVGID_2_" gradientUnits="userSpaceOnUse" x1="10.2598" y1="202.6687" x2="252.5484" y2="162.7758">
	<stop  offset="0" style="stop-color:#A5FF5F"/>
	<stop  offset="0.7056" style="stop-color:#005E02"/>
</linearGradient>
<path fill="url(#SVGID_2_)" d="M252.131,125.775c-0.125-2.707-0.332-5.364-0.6-7.981c-27.585,6.948-53.778,9.311-100.364,5.099
	c-64.041-5.79-92.692,32.754-143.349,21.919c-0.421-0.09-0.826-0.165-1.239-0.248C31.513,279.811,237.644,277.256,252.131,125.775z"
	/>
<linearGradient id="SVGID_3_" gradientUnits="userSpaceOnUse" x1="25.4387" y1="215.7142" x2="247.2627" y2="181.4563">
	<stop  offset="0" style="stop-color:#B157FF"/>
	<stop  offset="0.7701" style="stop-color:#2F0060"/>
</linearGradient>
<path fill="url(#SVGID_3_)" d="M246.964,153.479c-4.076,1.126-8.872,2.163-14.545,2.889c-42.646,5.46-70.778-18.687-144.839,12.041
	c-36.387,15.097-48.285-2.691-64.987,18.419c-0.029,0.034-0.054,0.068-0.083,0.102C73.704,270.442,216.062,261.303,246.964,153.479z
	"/>
<linearGradient id="SVGID_4_" gradientUnits="userSpaceOnUse" x1="48.5558" y1="230.0414" x2="235.6303" y2="198.9659">
	<stop  offset="0" style="stop-color:#F44A4A"/>
	<stop  offset="0.7996" style="stop-color:#4C0000"/>
</linearGradient>
<path fill="url(#SVGID_4_)" d="M234.963,182.144c-25.483-3.656-78.911-2.487-105.19,10.652c-34.839,17.419-60.99-4.994-83.65,20.259
	c-0.247,0.226-0.477,0.45-0.716,0.675C100.458,260.768,195.513,251.19,234.963,182.144z"/>
<polygon fill="#FFE878" points="147.668,74.749 146.361,77.975 145.504,80.915 148.117,79.813 151.425,79.037 148.771,77.975 "/>
<polygon fill="#FFE878" points="183.582,71.666 182.275,74.892 181.418,77.832 184.031,76.729 187.339,75.953 184.685,74.892 "/>
<polygon fill="#FFE878" points="216.289,62.952 215.187,59.726 213.88,62.952 213.022,65.892 215.636,64.789 218.944,64.014 "/>
<polygon fill="#FFE878" points="109.638,50.476 108.332,53.702 107.474,56.642 110.088,55.54 113.396,54.764 110.741,53.702 "/>
<polygon fill="#FFE878" points="145.862,53.559 144.555,56.785 143.697,59.726 146.311,58.623 149.619,57.847 146.964,56.785 "/>
<polygon fill="#FFE878" points="117.203,25.57 115.896,28.796 115.038,31.736 117.652,30.634 120.96,29.858 118.305,28.796 "/>
<path fill="#FF8500" d="M40.357,98.271c-6.142-0.795-13.924,2.658-14.965,9.086c-0.925,5.711,3.908,11.074,8.872,12.721
	c7.739,2.568,17.758-3.245,18.065-10.155C52.575,104.389,46.553,99.073,40.357,98.271z"/>
<path fill="#FF8500" stroke="#FF7F00" stroke-miterlimit="10" d="M53.733,119.759c1.802,2.523,3.605,5.046,5.407,7.569"/>
<path fill="#FF8500" stroke="#FF7F00" stroke-miterlimit="10" d="M57.241,105.229c-0.081,0.031-0.165,0.062-0.24,0.091
	C57.075,105.291,57.161,105.259,57.241,105.229z"/>
<path fill="#FF8500" stroke="#FF7F00" stroke-miterlimit="10" d="M57.001,105.319c-0.013,0.005-0.024,0.009-0.038,0.014
	C56.977,105.329,56.988,105.324,57.001,105.319z"/>
<path fill="#FF8500" stroke="#FF7F00" stroke-miterlimit="10" d="M56.964,105.334c-0.419,0.159-0.745,0.282-0.966,0.366
	C56.219,105.616,56.54,105.494,56.964,105.334z"/>
<path fill="#FF8500" stroke="#FF7F00" stroke-miterlimit="10" d="M57.987,104.946c-0.274,0.104-0.52,0.197-0.746,0.283
	C57.466,105.143,57.714,105.049,57.987,104.946z"/>
<path fill="#FF8500" stroke="#FF7F00" stroke-miterlimit="10" d="M63.189,102.974l2.333-0.884c-3.377,1.28-5.886,2.231-7.535,2.856
	C59.23,104.475,60.96,103.819,63.189,102.974z"/>
<path fill="#FF8500" stroke="#FF7F00" stroke-miterlimit="10" d="M65.522,102.09c0.374-0.142,0.762-0.289,1.158-0.439L65.522,102.09
	z"/>
<path fill="#FF8500" stroke="#FF7F00" stroke-miterlimit="10" d="M66.68,101.651l1.591-0.603
	C67.721,101.257,67.194,101.456,66.68,101.651z"/>
<path fill="#FF8500" stroke="#FF7F00" stroke-miterlimit="10" d="M55.997,105.7c-0.021,0.008-0.041,0.015-0.06,0.023
	C55.958,105.715,55.974,105.709,55.997,105.7z"/>
<path fill="#FF8500" stroke="#FF7F00" stroke-miterlimit="10" d="M55.937,105.723c-0.081,0.031-0.143,0.054-0.192,0.073
	C55.794,105.777,55.856,105.753,55.937,105.723z"/>
<path fill="#FF8500" stroke="#FF7F00" stroke-miterlimit="10" d="M55.745,105.795C55.595,105.852,55.597,105.852,55.745,105.795
	L55.745,105.795z"/>
<path fill="#FF8500" stroke="#FF7F00" stroke-miterlimit="10" d="M47.695,97.587c2.643-3.845,5.287-7.69,7.93-11.534"/>
<path fill="#FF8500" stroke="#FF7F00" stroke-miterlimit="10" d="M36.476,95.425c-1.442-4.205-2.884-8.411-4.325-12.616"/>
<path fill="#FF8500" stroke="#FF7F00" stroke-miterlimit="10" d="M23.185,98.353c-2.643-2.403-5.287-4.806-7.93-7.209"/>
<path fill="#FF8500" stroke="#FF7F00" stroke-miterlimit="10" d="M22.779,109.167c-4.325,0.721-8.651,1.442-12.976,2.163"/>
<path fill="#FF8500" stroke="#FF7F00" stroke-miterlimit="10" d="M26.429,121.017c-2.643,1.802-5.287,3.605-7.93,5.407"/>
<path fill="#FF8500" stroke="#FF7F00" stroke-miterlimit="10" d="M39.36,126.018c0.12,3.124,0.24,6.248,0.36,9.372"/>
<path fill="#FFBC00" d="M170.225,44.557c-6.567-4.079-8.758-17.419-8.758-17.419s-6.435,16.306,2.968,22.581
	c12.595,8.404,27.419-5.21,27.419-5.21S178.015,49.396,170.225,44.557z"/>
</svg>
